# xmcd CD database file
#
# Track frame offsets:
#	150
#	15385
#	29947
#	41972
#	54875
#	68350
#	83110
#	95865
#	109730
#	122822
#	134230
#	160025
#	172260
#	188047
#	203370
#
# Disc length: 2881 seconds
#
# Revision: 0
# Processed by: cddbd v1.5PL3 Copyright (c) Steve Scherf et al.
# Submitted via: CDex 1.50
#
DISCID=d00b3f0f
DTITLE=Various Artist - Folk Village 〜フォーク＆ニューミュージック大全集〜ソニー・ミュージック編Ｖｏｌ．１　Disc2
DYEAR=2001
DGENRE=Folk
TTITLE0=カルメン・マキ - 時には母のない子のように
TTITLE1=本田路津子 - 秋でもないのに
TTITLE2=Ｋとブルンネン - 何故に二人はここに
TTITLE3=伊東きよ子 - 花と小父さん
TTITLE4=ヴィレッジ・シンガーズ - 亜麻色の髪の乙女
TTITLE5=カルメン・マキ - 山羊にひかれて
TTITLE6=チューインガム - 風と落葉と旅びと
TTITLE7=ビリー・バンバン - さよならをするために
TTITLE8=Ｋとブルンネン - あの場所から
TTITLE9=本田路津子 - 一人の手
TTITLE10=森山良子 - 愛する人に歌わせないで
TTITLE11=伊東きよ子 - りんごの花咲く頃
TTITLE12=徳永芽里 - あなたのすべてを
TTITLE13=本田路津子 - 耳をすませてごらん
TTITLE14=アンドレ・カンドレ - 花にさえ鳥にさえ
EXTD=YEAR: 2001
EXTT0=
EXTT1=
EXTT2=
EXTT3=
EXTT4=
EXTT5=
EXTT6=
EXTT7=
EXTT8=
EXTT9=
EXTT10=
EXTT11=
EXTT12=
EXTT13=
EXTT14=
PLAYORDER=
